# Blender v3.1.2 OBJ File: ''
# www.blender.org
mtllib ../assets.mtl
o well_well_Cube.001
v 61.985576 62.40257376677704 15.938016
v 61.985576 62.29528676677704 15.90779
v 61.985576 62.29528676677704 15.938016
v 61.985576 62.40257376677704 15.90779
v 62.014424 62.29528676677704 15.90779
v 62.014424 62.40257376677704 15.90779
v 62.014424 62.29528676677704 15.938016
v 62.014424 62.40257376677704 15.938016
v 62.0 62.30959476677704 15.892299
v 62.021011 62.09419276677704 15.894369
v 62.0 62.09419276677704 15.892299
v 62.021011 62.30959476677704 15.894369
v 62.041215 62.09419276677704 15.900498
v 62.041215 62.30959476677704 15.900498
v 62.059835 62.09419276677704 15.91045
v 62.059835 62.30959476677704 15.91045
v 62.076156 62.09419276677704 15.923844
v 62.076156 62.30959476677704 15.923844
v 62.08955 62.09419276677704 15.940165
v 62.08955 62.30959476677704 15.940165
v 62.099502 62.09419276677704 15.958785
v 62.099502 62.30959476677704 15.958785
v 62.105631 62.09419276677704 15.978989
v 62.105631 62.30959476677704 15.978989
v 62.107701 62.09419276677704 16.0
v 62.107701 62.30959476677704 16.0
v 62.105631 62.09419276677704 16.021011
v 62.105631 62.30959476677704 16.021011
v 62.099502 62.09419276677704 16.041215
v 62.099502 62.30959476677704 16.041215
v 62.08955 62.09419276677704 16.059835
v 62.08955 62.30959476677704 16.059835
v 62.076156 62.09419276677704 16.076156
v 62.076156 62.30959476677704 16.076156
v 62.059835 62.09419276677704 16.08955
v 62.059835 62.30959476677704 16.08955
v 62.041215 62.09419276677704 16.099502
v 62.041215 62.30959476677704 16.099502
v 62.021011 62.09419276677704 16.105631
v 62.021011 62.30959476677704 16.105631
v 62.0 62.09419276677704 16.107701
v 62.0 62.30959476677704 16.107701
v 61.978989 62.09419276677704 16.105631
v 61.978989 62.30959476677704 16.105631
v 61.958785 62.09419276677704 16.099502
v 61.958785 62.30959476677704 16.099502
v 61.940165 62.09419276677704 16.08955
v 61.940165 62.30959476677704 16.08955
v 61.923844 62.09419276677704 16.076156
v 61.923844 62.30959476677704 16.076156
v 61.91045 62.09419276677704 16.059835
v 61.91045 62.30959476677704 16.059835
v 61.900498 62.09419276677704 16.041215
v 61.900498 62.30959476677704 16.041215
v 61.894369 62.09419276677704 16.021011
v 61.894369 62.30959476677704 16.021011
v 61.892299 62.09419276677704 16.0
v 61.892299 62.30959476677704 16.0
v 61.894369 62.09419276677704 15.978989
v 61.894369 62.30959476677704 15.978989
v 61.900498 62.09419276677704 15.958785
v 61.900498 62.30959476677704 15.958785
v 61.91045 62.09419276677704 15.940165
v 61.91045 62.30959476677704 15.940165
v 61.923844 62.09419276677704 15.923844
v 61.923844 62.30959476677704 15.923844
v 61.940165 62.09419276677704 15.91045
v 61.940165 62.30959476677704 15.91045
v 61.958785 62.09419276677704 15.900498
v 61.958785 62.30959476677704 15.900498
v 61.978989 62.09419276677704 15.894369
v 61.978989 62.30959476677704 15.894369
v 61.985576 62.40257376677704 16.090849
v 61.985576 62.29528676677704 16.060624
v 61.985576 62.29528676677704 16.090849
v 61.985576 62.40257376677704 16.060624
v 62.014424 62.29528676677704 16.060624
v 62.014424 62.40257376677704 16.060624
v 62.014424 62.29528676677704 16.090849
v 62.014424 62.40257376677704 16.090849
v 61.985576 62.40294776677704 16.089461
v 61.985576 62.43580476677704 15.907488
v 61.985576 62.40294776677704 15.907488
v 61.985576 62.43580476677704 16.089461
v 62.014424 62.43580476677704 15.907488
v 62.014424 62.43580476677704 16.089461
v 62.014424 62.40294776677704 15.907488
v 62.014424 62.40294776677704 16.089461

vt 0.625000 0.000000
vt 0.375000 0.250000
vt 0.375000 0.000000
vt 0.625000 0.250000
vt 0.375000 0.500000
vt 0.625000 0.500000
vt 0.375000 0.750000
vt 0.625000 0.750000
vt 0.375000 1.000000
vt 0.125000 0.750000
vt 0.125000 0.500000
vt 0.875000 0.500000
vt 1.000000 1.000000
vt 0.968750 0.500000
vt 1.000000 0.500000
vt 0.968750 1.000000
vt 0.937500 0.500000
vt 0.937500 1.000000
vt 0.906250 0.500000
vt 0.906250 1.000000
vt 0.875000 0.500000
vt 0.875000 1.000000
vt 0.843750 0.500000
vt 0.843750 1.000000
vt 0.812500 0.500000
vt 0.812500 1.000000
vt 0.781250 0.500000
vt 0.781250 1.000000
vt 0.750000 0.500000
vt 0.750000 1.000000
vt 0.718750 0.500000
vt 0.718750 1.000000
vt 0.687500 0.500000
vt 0.687500 1.000000
vt 0.656250 0.500000
vt 0.656250 1.000000
vt 0.625000 0.500000
vt 0.625000 1.000000
vt 0.593750 0.500000
vt 0.593750 1.000000
vt 0.562500 0.500000
vt 0.562500 1.000000
vt 0.531250 0.500000
vt 0.531250 1.000000
vt 0.500000 0.500000
vt 0.500000 1.000000
vt 0.468750 0.500000
vt 0.468750 1.000000
vt 0.437500 0.500000
vt 0.437500 1.000000
vt 0.406250 0.500000
vt 0.406250 1.000000
vt 0.375000 0.500000
vt 0.375000 1.000000
vt 0.343750 0.500000
vt 0.343750 1.000000
vt 0.312500 0.500000
vt 0.312500 1.000000
vt 0.281250 0.500000
vt 0.281250 1.000000
vt 0.250000 0.500000
vt 0.250000 1.000000
vt 0.218750 0.500000
vt 0.218750 1.000000
vt 0.187500 0.500000
vt 0.187500 1.000000
vt 0.156250 0.500000
vt 0.156250 1.000000
vt 0.125000 0.500000
vt 0.125000 1.000000
vt 0.093750 0.500000
vt 0.093750 1.000000
vt 0.062500 0.500000
vt 0.419706 0.419706
vt 0.383337 0.449553
vt 0.419706 0.080294
vt 0.062500 1.000000
vt 0.031250 0.500000
vt 0.031250 1.000000
vt 0.000000 0.500000
vt 0.616663 0.449553
vt 0.658156 0.471731
vt 0.616663 0.050447
vt 0.625000 0.000000
vt 0.375000 0.250000
vt 0.375000 0.000000
vt 0.625000 0.250000
vt 0.375000 0.500000
vt 0.625000 0.500000
vt 0.375000 0.750000
vt 0.625000 0.750000
vt 0.375000 1.000000
vt 0.125000 0.750000
vt 0.125000 0.500000
vt 0.875000 0.500000
vt 0.625000 0.000000
vt 0.375000 0.250000
vt 0.375000 0.000000
vt 0.625000 0.250000
vt 0.375000 0.500000
vt 0.625000 0.500000
vt 0.375000 0.750000
vt 0.625000 0.750000
vt 0.375000 1.000000
vt 0.125000 0.750000
vt 0.125000 0.500000
vt 0.875000 0.500000
vt 0.625000 1.000000
vt 0.875000 0.750000
vt 0.341844 0.471731
vt 0.296822 0.485388
vt 0.296822 0.014612
vt 0.250000 0.490000
vt 0.250000 0.010000
vt 0.203178 0.485388
vt 0.203178 0.014612
vt 0.158156 0.471731
vt 0.158156 0.028269
vt 0.116663 0.449553
vt 0.080294 0.419706
vt 0.116663 0.050447
vt 0.050447 0.383337
vt 0.080294 0.080294
vt 0.028269 0.341844
vt 0.050447 0.116663
vt 0.014612 0.296822
vt 0.014612 0.203178
vt 0.010000 0.250000
vt 0.028269 0.158156
vt 0.341844 0.028269
vt 0.383337 0.050447
vt 0.449553 0.116663
vt 0.471731 0.158156
vt 0.449553 0.383337
vt 0.485388 0.203178
vt 0.471731 0.341844
vt 0.490000 0.250000
vt 0.485388 0.296822
vt 0.000000 1.000000
vt 0.703178 0.485388
vt 0.750000 0.490000
vt 0.750000 0.010000
vt 0.796822 0.485388
vt 0.796822 0.014612
vt 0.841844 0.471731
vt 0.883337 0.449553
vt 0.841844 0.028269
vt 0.919706 0.419706
vt 0.919706 0.080294
vt 0.949553 0.383337
vt 0.949553 0.116663
vt 0.971731 0.341844
vt 0.985388 0.296822
vt 0.971731 0.158156
vt 0.990000 0.250000
vt 0.985388 0.203178
vt 0.883337 0.050447
vt 0.703178 0.014612
vt 0.658156 0.028269
vt 0.580294 0.080294
vt 0.580294 0.419706
vt 0.550447 0.116663
vt 0.550447 0.383337
vt 0.528269 0.158156
vt 0.514612 0.203178
vt 0.528269 0.341844
vt 0.510000 0.250000
vt 0.514612 0.296822
vt 0.625000 1.000000
vt 0.875000 0.750000
vt 0.625000 1.000000
vt 0.875000 0.750000
vn -1.0000 0.0000 0.0000
vn 0.0000 0.0000 -1.0000
vn 1.0000 0.0000 0.0000
vn 0.0000 0.0000 1.0000
vn 0.0000 -1.0000 0.0000
vn 0.0000 1.0000 0.0000
vn 0.0980 0.0000 -0.9952
vn 0.2903 0.0000 -0.9569
vn 0.4714 0.0000 -0.8819
vn 0.6344 0.0000 -0.7730
vn 0.7730 0.0000 -0.6344
vn 0.8819 0.0000 -0.4714
vn 0.9569 0.0000 -0.2903
vn 0.9952 0.0000 -0.0980
vn 0.9952 0.0000 0.0980
vn 0.9569 0.0000 0.2903
vn 0.8819 0.0000 0.4714
vn 0.7730 0.0000 0.6344
vn 0.6344 0.0000 0.7730
vn 0.4714 0.0000 0.8819
vn 0.2903 0.0000 0.9569
vn 0.0980 0.0000 0.9952
vn -0.0980 0.0000 0.9952
vn -0.2903 0.0000 0.9569
vn -0.4714 0.0000 0.8819
vn -0.6344 0.0000 0.7730
vn -0.7730 0.0000 0.6344
vn -0.8819 0.0000 0.4714
vn -0.9569 0.0000 0.2903
vn -0.9952 0.0000 0.0980
vn -0.9952 0.0000 -0.0980
vn -0.9569 0.0000 -0.2903
vn -0.8819 0.0000 -0.4714
vn -0.7730 0.0000 -0.6344
vn -0.6344 0.0000 -0.7730
vn -0.4714 0.0000 -0.8819
vn -0.2903 0.0000 -0.9569
vn -0.0980 0.0000 -0.9952
usemtl well
s off
f 1/1/1 2/2/1 3/3/1
f 4/4/2 5/5/2 2/2/2
f 6/6/3 7/7/3 5/5/3
f 8/8/4 3/9/4 7/7/4
f 5/5/5 3/10/5 2/11/5
f 4/12/6 8/8/6 6/6/6
f 9/13/7 10/14/7 11/15/7
f 12/16/8 13/17/8 10/14/8
f 14/18/9 15/19/9 13/17/9
f 16/20/10 17/21/10 15/19/10
f 18/22/11 19/23/11 17/21/11
f 20/24/12 21/25/12 19/23/12
f 22/26/13 23/27/13 21/25/13
f 24/28/14 25/29/14 23/27/14
f 26/30/15 27/31/15 25/29/15
f 28/32/16 29/33/16 27/31/16
f 30/34/17 31/35/17 29/33/17
f 32/36/18 33/37/18 31/35/18
f 34/38/19 35/39/19 33/37/19
f 36/40/20 37/41/20 35/39/20
f 38/42/21 39/43/21 37/41/21
f 40/44/22 41/45/22 39/43/22
f 42/46/23 43/47/23 41/45/23
f 44/48/24 45/49/24 43/47/24
f 46/50/25 47/51/25 45/49/25
f 48/52/26 49/53/26 47/51/26
f 50/54/27 51/55/27 49/53/27
f 52/56/28 53/57/28 51/55/28
f 54/58/29 55/59/29 53/57/29
f 56/60/30 57/61/30 55/59/30
f 58/62/31 59/63/31 57/61/31
f 60/64/32 61/65/32 59/63/32
f 62/66/33 63/67/33 61/65/33
f 64/68/34 65/69/34 63/67/34
f 66/70/35 67/71/35 65/69/35
f 68/72/36 69/73/36 67/71/36
f 18/74/6 16/75/6 34/76/6
f 70/77/37 71/78/37 69/73/37
f 72/79/38 11/80/38 71/78/38
f 67/81/5 69/82/5 47/83/5
f 73/84/1 74/85/1 75/86/1
f 76/87/2 77/88/2 74/85/2
f 78/89/3 79/90/3 77/88/3
f 80/91/4 75/92/4 79/90/4
f 77/88/5 75/93/5 74/94/5
f 76/95/6 80/91/6 78/89/6
f 81/96/1 82/97/1 83/98/1
f 84/99/6 85/100/6 82/97/6
f 86/101/3 87/102/3 85/100/3
f 88/103/5 83/104/5 87/102/5
f 85/100/2 83/105/2 82/106/2
f 84/107/4 88/103/4 86/101/4
f 1/1/1 4/4/1 2/2/1
f 4/4/2 6/6/2 5/5/2
f 6/6/3 8/8/3 7/7/3
f 8/8/4 1/108/4 3/9/4
f 5/5/5 7/7/5 3/10/5
f 4/12/6 1/109/6 8/8/6
f 9/13/7 12/16/7 10/14/7
f 12/16/8 14/18/8 13/17/8
f 14/18/9 16/20/9 15/19/9
f 16/20/10 18/22/10 17/21/10
f 18/22/11 20/24/11 19/23/11
f 20/24/12 22/26/12 21/25/12
f 22/26/13 24/28/13 23/27/13
f 24/28/14 26/30/14 25/29/14
f 26/30/15 28/32/15 27/31/15
f 28/32/16 30/34/16 29/33/16
f 30/34/17 32/36/17 31/35/17
f 32/36/18 34/38/18 33/37/18
f 34/38/19 36/40/19 35/39/19
f 36/40/20 38/42/20 37/41/20
f 38/42/21 40/44/21 39/43/21
f 40/44/22 42/46/22 41/45/22
f 42/46/23 44/48/23 43/47/23
f 44/48/24 46/50/24 45/49/24
f 46/50/25 48/52/25 47/51/25
f 48/52/26 50/54/26 49/53/26
f 50/54/27 52/56/27 51/55/27
f 52/56/28 54/58/28 53/57/28
f 54/58/29 56/60/29 55/59/29
f 56/60/30 58/62/30 57/61/30
f 58/62/31 60/64/31 59/63/31
f 60/64/32 62/66/32 61/65/32
f 62/66/33 64/68/33 63/67/33
f 64/68/34 66/70/34 65/69/34
f 66/70/35 68/72/35 67/71/35
f 68/72/36 70/77/36 69/73/36
f 14/110/6 12/111/6 40/112/6
f 12/111/6 9/113/6 42/114/6
f 9/113/6 72/115/6 44/116/6
f 72/115/6 70/117/6 46/118/6
f 70/117/6 68/119/6 46/118/6
f 68/119/6 66/120/6 48/121/6
f 46/118/6 68/119/6 48/121/6
f 66/120/6 64/122/6 50/123/6
f 64/122/6 62/124/6 52/125/6
f 50/123/6 64/122/6 52/125/6
f 62/124/6 60/126/6 56/127/6
f 60/126/6 58/128/6 56/127/6
f 56/127/6 54/129/6 62/124/6
f 54/129/6 52/125/6 62/124/6
f 50/123/6 48/121/6 66/120/6
f 46/118/6 44/116/6 72/115/6
f 44/116/6 42/114/6 9/113/6
f 42/114/6 40/112/6 12/111/6
f 40/112/6 38/130/6 14/110/6
f 38/130/6 36/131/6 14/110/6
f 36/131/6 34/76/6 16/75/6
f 14/110/6 36/131/6 16/75/6
f 34/76/6 32/132/6 18/74/6
f 32/132/6 30/133/6 20/134/6
f 18/74/6 32/132/6 20/134/6
f 30/133/6 28/135/6 22/136/6
f 28/135/6 26/137/6 24/138/6
f 22/136/6 28/135/6 24/138/6
f 22/136/6 20/134/6 30/133/6
f 70/77/37 72/79/37 71/78/37
f 72/79/38 9/139/38 11/80/38
f 71/140/5 11/141/5 41/142/5
f 11/141/5 10/143/5 39/144/5
f 10/143/5 13/145/5 39/144/5
f 13/145/5 15/146/5 37/147/5
f 39/144/5 13/145/5 37/147/5
f 15/146/5 17/148/5 33/149/5
f 17/148/5 19/150/5 31/151/5
f 19/150/5 21/152/5 31/151/5
f 21/152/5 23/153/5 29/154/5
f 31/151/5 21/152/5 29/154/5
f 23/153/5 25/155/5 27/156/5
f 27/156/5 29/154/5 23/153/5
f 31/151/5 33/149/5 17/148/5
f 33/149/5 35/157/5 15/146/5
f 35/157/5 37/147/5 15/146/5
f 39/144/5 41/142/5 11/141/5
f 41/142/5 43/158/5 71/140/5
f 43/158/5 45/159/5 71/140/5
f 45/159/5 47/83/5 69/82/5
f 71/140/5 45/159/5 69/82/5
f 47/83/5 49/160/5 65/161/5
f 49/160/5 51/162/5 63/163/5
f 51/162/5 53/164/5 63/163/5
f 53/164/5 55/165/5 61/166/5
f 63/163/5 53/164/5 61/166/5
f 55/165/5 57/167/5 59/168/5
f 59/168/5 61/166/5 55/165/5
f 63/163/5 65/161/5 49/160/5
f 65/161/5 67/81/5 47/83/5
f 73/84/1 76/87/1 74/85/1
f 76/87/2 78/89/2 77/88/2
f 78/89/3 80/91/3 79/90/3
f 80/91/4 73/169/4 75/92/4
f 77/88/5 79/90/5 75/93/5
f 76/95/6 73/170/6 80/91/6
f 81/96/1 84/99/1 82/97/1
f 84/99/6 86/101/6 85/100/6
f 86/101/3 88/103/3 87/102/3
f 88/103/5 81/171/5 83/104/5
f 85/100/2 87/102/2 83/105/2
f 84/107/4 81/172/4 88/103/4
