# Blender v3.1.2 OBJ File: ''
# www.blender.org
mtllib ../assets.mtl
o tree_Cylinder
v 187.045282 61.260969060510625 73.79842
v 187.0 62.09955106051063 73.498022
v 187.138271 61.873234060510626 73.847426
v 187.174558 61.260969060510625 73.88948
v 187.200982 61.873234060510626 73.933588
v 187.288862 61.98557706051063 73.94168
v 187.20158 61.260969060510625 74.045282
v 187.477439 62.11865906051063 74.006321
v 187.155347 61.873234060510626 74.134002
v 187.11052 61.260969060510625 74.174558
v 187.076384 61.873234060510626 74.197957
v 187.0 62.09955106051063 74.500254
v 186.954718 61.260969060510625 74.20158
v 186.861729 61.873234060510626 74.152574
v 186.825442 61.260969060510625 74.11052
v 186.80053 61.873234060510626 74.071398
v 186.522561 62.11865906051063 74.006321
v 186.79842 61.260969060510625 73.954718
v 186.711138 61.98557706051063 73.94168
v 186.842012 61.873234060510626 73.870343
v 186.88948 61.260969060510625 73.825442
v 186.923616 61.873234060510626 73.802043
v 186.916846 61.548126060510626 73.812395
v 187.055966 61.548126060510626 73.797761
v 187.085083 61.98557706051063 73.718656
v 187.167778 61.548126060510626 73.881844
v 187.344688 61.64420506051063 74.005185
v 187.161734 61.548126060510626 74.12622
v 187.005031 61.548126060510626 74.205146
v 187.085083 61.98557706051063 74.27962
v 186.914917 61.98557706051063 74.27962
v 186.842012 61.548126060510626 74.129657
v 186.655312 61.64420506051063 74.005185
v 186.810647 61.548126060510626 73.91046
v 186.914917 61.98557706051063 73.718656
v 187.0 61.773988060510625 73.638218
v 187.087387 61.40454806051063 73.815203
v 187.200223 61.40454806051063 73.955043
v 187.284672 61.98557706051063 74.070409
v 187.161734 61.40454806051063 74.12622
v 187.005031 61.40454806051063 74.205146
v 186.844653 61.40454806051063 74.134002
v 186.797814 61.40454806051063 73.964912
v 186.903656 61.40454806051063 73.819753
v 187.080901 61.69170506051063 73.804688
v 187.167778 61.69170506051063 73.881844
v 187.344688 61.79252706051063 74.005185
v 187.137288 61.72965506051063 74.151454
v 187.0 61.78088806051063 74.361782
v 186.919099 61.72965506051063 74.195312
v 186.83462 61.72965506051063 74.122667
v 186.715328 61.98557706051063 74.070409
v 186.655312 61.79252706051063 74.005185
v 186.795993 61.69170506051063 73.94356
v 186.862712 61.69170506051063 73.848546
v 187.202495 61.72965506051063 74.061426
v 187.289982 62.771762060510625 73.80624
v 187.384923 62.51438706051063 73.146911
v 187.322246 62.054275060510626 73.263851
v 187.212614 61.88894206051063 73.977512
v 187.947252 62.47461806051063 73.803761
v 187.805189 62.06605206051063 73.839838
v 187.653542 62.48125906051063 74.710057
v 187.592777 62.06668606051063 74.566538
v 186.981626 62.77432606051063 74.325549
v 186.758193 62.50565906051063 74.913568
v 186.841937 62.06398906051063 74.799661
v 186.740461 61.893275060510625 74.032566
v 186.122722 62.512736060510626 74.326573
v 186.214099 62.08937306051063 74.329392
v 186.691121 62.76888406051063 73.783595
v 186.168704 62.475219060510625 73.495941
v 186.313089 62.07062506051063 73.539885
v 186.64226 62.49971806051063 73.076761
v 186.788383 62.13777806051063 73.084381
v 186.969639 62.691605060510625 73.252407
v 186.891972 61.91605006051063 73.481809
v 187.858254 62.269133060510626 73.324345
v 187.703674 62.680505060510626 74.278942
v 188.045162 62.31319506051063 74.298918
v 187.243723 62.618250060510626 74.86324
v 187.306608 62.259601060510626 75.046859
v 187.080981 61.90726806051063 74.504536
v 186.319456 62.27258806051063 74.844008
v 186.382004 62.68862206051063 74.40588
v 185.909054 62.27324706051063 73.936299
v 186.352045 62.249717060510626 73.1184
v 187.0 62.426931060510626 72.898426
v 187.428882 62.28163306051063 72.964587
v 187.762733 62.61762306051063 73.509134
v 187.532299 61.92947406051063 73.64433
v 186.553116 61.92947406051063 74.446884
v 186.240243 62.675386060510625 73.719002

vt 0.816406 0.875000
vt 0.820312 1.000000
vt 0.812500 1.000000
vt 0.785156 0.875000
vt 0.789062 1.000000
vt 0.781250 1.000000
vt 0.695312 0.875000
vt 0.691406 1.000000
vt 0.687500 0.875000
vt 0.566406 0.875000
vt 0.570312 1.000000
vt 0.562500 1.000000
vt 0.316406 0.875000
vt 0.320312 1.000000
vt 0.312500 1.000000
vt 0.289062 0.875000
vt 0.289062 1.000000
vt 0.281250 1.000000
vt 0.281250 0.875000
vt 0.226562 0.875000
vt 0.226562 1.000000
vt 0.218750 1.000000
vt 0.218750 0.875000
vt 0.195312 0.875000
vt 0.191406 1.000000
vt 0.187500 0.875000
vt 0.066406 0.875000
vt 0.070312 1.000000
vt 0.062500 1.000000
vt 0.801111 0.477528
vt 0.947027 0.374746
vt 0.977528 0.198889
vt 0.874746 0.052973
vt 0.698889 0.022472
vt 0.552973 0.125254
vt 0.522472 0.301111
vt 0.625254 0.447027
vt 0.007812 0.625000
vt 0.003906 0.750000
vt 0.000000 0.625000
vt 0.050781 0.875000
vt 0.054688 1.000000
vt 0.046875 1.000000
vt 0.222656 0.625000
vt 0.226562 0.750000
vt 0.218750 0.750000
vt 0.285156 0.625000
vt 0.289062 0.750000
vt 0.281250 0.750000
vt 0.460938 0.875000
vt 0.460938 1.000000
vt 0.453125 1.000000
vt 0.453125 0.875000
vt 0.550781 0.875000
vt 0.554688 1.000000
vt 0.546875 1.000000
vt 0.707031 0.875000
vt 0.710938 1.000000
vt 0.703125 1.000000
vt 0.960938 0.875000
vt 0.960938 1.000000
vt 0.953125 1.000000
vt 0.953125 0.875000
vt 1.000000 0.750000
vt 0.996094 0.875000
vt 0.992188 0.750000
vt 0.996094 0.625000
vt 0.957031 0.750000
vt 0.917969 0.625000
vt 0.921875 0.750000
vt 0.914062 0.750000
vt 0.906250 0.500000
vt 0.902344 0.625000
vt 0.898438 0.500000
vt 0.855469 0.500000
vt 0.859375 0.625000
vt 0.851562 0.625000
vt 0.855469 0.750000
vt 0.781250 0.750000
vt 0.781250 0.875000
vt 0.773438 0.875000
vt 0.773438 0.750000
vt 0.773438 1.000000
vt 0.781250 0.500000
vt 0.777344 0.625000
vt 0.773438 0.500000
vt 0.718750 0.750000
vt 0.718750 0.875000
vt 0.710938 0.875000
vt 0.710938 0.750000
vt 0.718750 1.000000
vt 0.714844 0.500000
vt 0.718750 0.625000
vt 0.710938 0.625000
vt 0.656250 0.500000
vt 0.652344 0.625000
vt 0.648438 0.500000
vt 0.574219 0.500000
vt 0.578125 0.625000
vt 0.570312 0.625000
vt 0.578125 0.750000
vt 0.570312 0.750000
vt 0.531250 0.500000
vt 0.527344 0.625000
vt 0.523438 0.500000
vt 0.457031 0.750000
vt 0.437500 0.750000
vt 0.433594 0.875000
vt 0.429688 0.750000
vt 0.433594 0.500000
vt 0.437500 0.625000
vt 0.429688 0.625000
vt 0.406250 0.500000
vt 0.402344 0.625000
vt 0.398438 0.500000
vt 0.292969 0.500000
vt 0.296875 0.625000
vt 0.289062 0.625000
vt 0.292969 0.750000
vt 0.281250 0.500000
vt 0.277344 0.625000
vt 0.273438 0.500000
vt 0.214844 0.875000
vt 0.210938 1.000000
vt 0.156250 0.500000
vt 0.156250 0.625000
vt 0.148438 0.625000
vt 0.148438 0.500000
vt 0.152344 0.750000
vt 0.136719 0.625000
vt 0.140625 0.750000
vt 0.132812 0.750000
vt 0.031250 0.500000
vt 0.027344 0.625000
vt 0.023438 0.500000
vt 0.003906 0.500000
vt 0.042969 0.750000
vt 0.046875 0.875000
vt 0.039062 0.875000
vt 0.039062 1.000000
vt 0.136719 0.875000
vt 0.191406 0.750000
vt 0.292969 0.875000
vt 0.296875 1.000000
vt 0.417969 0.750000
vt 0.421875 0.875000
vt 0.414062 0.875000
vt 0.417969 1.000000
vt 0.449219 0.875000
vt 0.445312 1.000000
vt 0.542969 0.750000
vt 0.546875 0.875000
vt 0.539062 0.875000
vt 0.539062 1.000000
vt 0.574219 0.875000
vt 0.691406 0.750000
vt 0.921875 0.875000
vt 0.914062 0.875000
vt 0.917969 1.000000
vt 0.949219 0.875000
vt 0.945312 1.000000
vt 0.000000 0.000000
vt 0.000000 0.000000
vt 0.000000 0.000000
vt 0.000000 0.000000
vt 0.000000 0.000000
vt 0.000000 0.000000
vt 0.000000 0.000000
vt 0.000000 0.000000
vt 0.000000 0.000000
vt 0.000000 0.000000
vt 0.000000 0.000000
vt 0.000000 0.000000
vt 0.882813 1.000000
vt 0.058594 1.000000
vt 0.140625 1.000000
vt 0.304688 1.000000
vt 0.382812 1.000000
vt 0.558594 1.000000
vt 0.636719 1.000000
vt 0.800781 1.000000
vt 0.660913 0.674416
vt 0.588617 0.613440
vt 0.715211 0.526770
vt 0.524110 0.510747
vt 0.623095 0.447802
vt 0.735715 0.392569
vt 0.888256 0.399878
vt 0.987237 0.356095
vt 0.987237 0.470901
vt 0.982324 0.471498
vt 0.982324 0.592183
vt 0.888256 0.525029
vt 0.460287 0.406760
vt 0.574178 0.324183
vt 0.722933 0.300735
vt 0.642396 0.200596
vt 0.669160 0.828890
vt 0.741737 0.958135
vt 0.623032 0.940412
vt 0.456144 0.262879
vt 0.509102 0.154422
vt 0.741737 0.828431
vt 0.555847 0.043155
vt 0.686303 0.075241
vt 0.770795 0.205861
vt 0.999701 0.129942
vt 0.999701 0.240834
vt 0.888256 0.196299
vt 0.822151 0.126639
vt 0.147602 0.771437
vt 0.269193 0.769332
vt 0.269193 0.898378
vt 0.141820 0.904906
vt 0.790387 0.000299
vt 0.989108 0.241432
vt 0.989108 0.355497
vt 0.888256 0.287542
vt 0.887659 0.005169
vt 0.668287 0.827833
vt 0.781188 0.708895
vt 0.781188 0.811578
vt 0.990241 0.129345
vt 0.888256 0.117387
vt 0.893402 0.001740
vt 0.990241 0.000299
vt 0.623032 0.771091
vt 0.774681 0.630904
vt 0.834740 0.460559
vt 0.887659 0.540974
vt 0.697934 0.675013
vt 0.894757 0.848958
vt 0.975140 0.805265
vt 0.975140 0.897467
vt 0.265737 0.078691
vt 0.353380 0.118883
vt 0.268981 0.160491
vt 0.200618 0.113154
vt 0.192382 0.000299
vt 0.119244 0.078324
vt 0.410050 0.212477
vt 0.543840 0.751290
vt 0.533699 0.834652
vt 0.456144 0.736356
vt 0.304075 0.299835
vt 0.230381 0.237566
vt 0.160784 0.174660
vt 0.064854 0.195078
vt 0.456144 0.892057
vt 0.574141 0.835250
vt 0.536139 0.895565
vt 0.574141 0.960743
vt 0.176522 0.253964
vt 0.110520 0.288442
vt 0.206979 0.334591
vt 0.006932 0.309313
vt 0.298662 0.409504
vt 0.129555 0.384605
vt 0.192497 0.437283
vt 0.000299 0.449430
vt 0.099423 0.480991
vt 0.314627 0.904182
vt 0.269791 0.783462
vt 0.349804 0.829483
vt 0.055067 0.571275
vt 0.396679 0.769332
vt 0.396679 0.904566
vt 0.207432 0.523665
vt 0.151110 0.608731
vt 0.906526 0.804668
vt 0.781785 0.734330
vt 0.865804 0.741871
vt 0.103756 0.694544
vt 0.351310 0.530191
vt 0.289644 0.609100
vt 0.906526 0.675013
vt 0.245943 0.667064
vt 0.005233 0.914639
vt 0.000299 0.769332
vt 0.067652 0.843477
vt 0.401167 0.624962
vt 0.351080 0.686388
vt 0.141222 0.776467
vt 0.141222 0.919679
vt 0.345781 0.759180
vt 0.894160 0.805265
vt 0.894160 0.942789
vt 0.836765 0.868084
vt 0.785080 0.940736
vt 0.455547 0.768735
vt 0.504242 0.675013
vt 0.622434 0.690461
vt 0.622434 0.799202
vt 0.781785 0.816493
vt 0.321373 0.035053
vt 0.455547 0.112017
vn 0.8084 0.0198 -0.5884
vn -0.3180 0.3132 -0.8948
vn 0.8095 -0.0306 0.5863
vn 0.6293 0.0153 0.7770
vn -0.7982 0.0254 0.6018
vn -0.4919 -0.1375 0.8597
vn -0.4499 -0.1590 -0.8788
vn -0.8181 -0.0243 -0.5745
vn -0.6417 0.0189 -0.7667
vn 0.0000 -1.0000 0.0000
vn -0.0247 -0.0489 -0.9985
vn -0.7023 0.3885 0.5966
vn -0.6075 -0.2336 -0.7592
vn -0.6441 -0.4827 0.5935
vn -0.8733 -0.1816 0.4520
vn 0.5561 0.4601 -0.6922
vn 0.5732 -0.2119 0.7915
vn 0.8699 -0.1744 -0.4614
vn -0.0846 -0.5888 -0.8039
vn -0.1035 -0.1422 -0.9844
vn 0.8660 -0.1271 -0.4837
vn 0.6007 0.0344 -0.7988
vn 0.5743 -0.0731 -0.8154
vn 0.7699 0.1461 -0.6212
vn 0.7703 -0.1428 -0.6215
vn 0.5719 0.0000 -0.8203
vn 0.5175 -0.1287 -0.8460
vn 0.9806 -0.0976 -0.1701
vn 0.6377 -0.2306 -0.7350
vn 0.4280 0.1230 0.8954
vn 0.4200 -0.1706 0.8914
vn 0.9653 0.1455 0.2170
vn 0.7961 -0.3634 0.4838
vn 0.8137 -0.0973 0.5731
vn 0.4455 0.1389 0.8845
vn 0.4498 0.0000 0.8931
vn 0.1703 -0.0841 0.9818
vn -0.7957 -0.3499 0.4944
vn -0.4156 -0.1481 0.8974
vn -0.4026 0.1186 0.9076
vn -0.4129 0.0100 0.9107
vn -0.5749 -0.0566 0.8162
vn -0.9602 0.0850 0.2660
vn -0.9637 -0.0096 0.2669
vn -0.9852 -0.0163 0.1709
vn -0.5818 -0.1731 -0.7947
vn -0.8116 0.0475 -0.5823
vn -0.7989 -0.1495 -0.5825
vn -0.6782 0.0247 -0.7345
vn -0.1708 -0.0222 -0.9850
vn -0.0246 0.1232 -0.9921
vn -0.7986 -0.1546 -0.5817
vn -0.8494 -0.1491 -0.5062
vn -0.6767 -0.0706 -0.7328
vn -0.8174 0.0489 -0.5740
vn -0.4228 0.0811 -0.9026
vn -0.5498 0.0054 0.8353
vn 0.5108 0.3941 0.7641
vn -0.6520 0.0026 0.7582
vn -0.6516 -0.0348 0.7578
vn -0.8389 -0.1826 0.5127
vn 0.7354 -0.3673 0.5695
vn 0.8527 -0.1541 0.4991
vn 0.4489 -0.0634 0.8913
vn 0.8096 0.0275 0.5864
vn 0.6297 -0.0360 -0.7760
vn 0.6637 -0.0338 -0.7473
vn 0.8577 -0.1557 -0.4901
vn -0.5722 -0.8199 0.0186
vn 0.0000 0.8885 0.4590
vn 0.5722 -0.8199 0.0186
vn 0.0000 -0.8885 0.4590
vn 0.0002 1.0000 -0.0037
vn -0.2683 0.2715 0.9243
vn -0.7287 0.2817 0.6242
vn -0.3940 -0.8740 0.2844
vn -0.2421 0.9527 0.1835
vn -0.3043 0.9483 -0.0898
vn -0.9209 0.2643 -0.2866
vn -0.4091 -0.9038 -0.1259
vn -0.3064 -0.9352 -0.1773
vn -0.1267 -0.8831 -0.4517
vn -0.0784 0.9673 -0.2413
vn -0.2432 0.2733 -0.9307
vn -0.0161 0.9764 -0.2152
vn 0.6290 0.2230 -0.7447
vn 0.2766 -0.9095 -0.3104
vn 0.2175 0.9462 -0.2394
vn 0.2881 -0.9466 -0.1449
vn 0.9578 0.2770 0.0761
vn 0.4613 -0.8848 0.0655
vn 0.3604 0.9325 0.0230
vn 0.3263 -0.8907 0.3166
vn 0.1069 0.9615 0.2533
vn 0.6338 0.2885 0.7177
vn 0.0382 0.9671 0.2513
vn -0.0126 -0.9332 0.3592
vn 0.0724 0.9691 0.2356
vn -0.0937 -0.0169 0.9955
vn 0.0045 -1.0000 0.0076
vn 0.1922 0.7938 -0.5770
vn 0.3207 0.6209 -0.7153
vn -0.0436 -0.5176 -0.8545
vn 0.0713 -0.8063 -0.5872
vn 0.3063 0.9009 -0.3076
vn 0.2120 -0.9587 -0.1895
vn 0.0827 0.9323 -0.3520
vn 0.5321 0.5821 -0.6148
vn 0.3733 -0.7980 -0.4732
vn 0.3838 -0.8719 -0.3040
vn 0.6522 -0.5361 -0.5359
vn -0.1312 -0.9612 -0.2428
vn 0.5203 0.5070 -0.6872
vn 0.3225 -0.9259 0.1967
vn 0.8493 0.4095 -0.3332
vn 0.9818 0.0157 -0.1890
vn 0.8230 -0.5523 -0.1329
vn 0.6278 0.7783 -0.0154
vn 0.2769 0.9592 -0.0571
vn 0.7280 0.6811 0.0781
vn 0.5435 -0.8241 0.1596
vn 0.1332 0.9883 0.0742
vn 0.6688 0.6422 0.3746
vn 0.6087 -0.3377 0.7179
vn 0.1394 0.9671 0.2128
vn 0.4250 0.8018 0.4200
vn 0.7568 -0.3101 0.5754
vn 0.2843 -0.9531 0.1041
vn 0.1397 -0.8873 0.4396
vn 0.1802 -0.8008 0.5712
vn 0.4425 0.4689 0.7644
vn -0.0053 -0.9994 0.0334
vn -0.0129 0.4539 0.8910
vn -0.1765 0.9189 0.3528
vn -0.1995 0.0842 0.9763
vn -0.1696 -0.5923 0.7876
vn -0.3017 -0.9214 0.2450
vn 0.2215 -0.9577 0.1838
vn -0.3161 -0.8715 0.3750
vn -0.0790 0.9177 0.3893
vn -0.4986 -0.5915 0.6337
vn -0.4521 0.6781 0.5794
vn -0.5837 0.6288 0.5138
vn -0.3961 -0.9128 -0.0994
vn -0.9429 -0.2018 0.2649
vn -0.8156 -0.1724 0.5523
vn -0.1332 0.9892 0.0614
vn -0.2062 0.9782 0.0237
vn -0.5799 0.8080 0.1041
vn -0.6844 0.7257 -0.0707
vn -0.4784 -0.8773 -0.0391
vn -0.9127 0.4028 -0.0687
vn -0.7403 -0.3279 -0.5869
vn -0.9078 -0.3492 -0.2323
vn -0.5666 0.5566 -0.6076
vn -0.1433 0.9281 -0.3435
vn -0.4775 0.7245 -0.4971
vn -0.2669 -0.9571 -0.1130
vn -0.2734 -0.8686 -0.4133
vn -0.0924 -0.0582 -0.9940
vn -0.2570 -0.8807 -0.3980
vn -0.3502 0.8832 -0.3121
vn -0.0144 -0.9989 -0.0453
vn 0.0297 -0.8696 -0.4929
vn -0.1392 0.7873 -0.6006
vn -0.4699 -0.2078 -0.8579
vn 0.0007 0.9896 -0.1436
usemtl Bark
s off
f 46/1/1 3/2/1 5/3/1
f 46/4/2 5/5/2 6/6/2
f 56/7/3 9/8/3 48/9/3
f 48/10/4 9/11/4 11/12/4
f 51/13/5 14/14/5 16/15/5
f 51/16/6 52/17/6 17/18/6 53/19/6
f 53/20/7 17/21/7 19/22/7 54/23/7
f 54/24/8 20/25/8 55/26/8
f 55/27/9 20/28/9 22/29/9
f 1/30/10 4/31/10 7/32/10 10/33/10 13/34/10 15/35/10 18/36/10 21/37/10
f 44/38/11 23/39/11 37/40/11
f 55/41/12 22/42/12 35/43/12
f 43/44/13 33/45/13 34/46/13
f 43/47/14 32/48/14 33/49/14
f 49/50/15 12/51/15 31/52/15 50/53/15
f 48/54/16 11/55/16 30/56/16
f 56/57/17 39/58/17 9/59/17
f 36/60/18 2/61/18 25/62/18 45/63/18
f 23/64/19 36/65/19 24/66/19
f 37/67/20 23/64/20 24/66/20
f 24/68/21 36/60/21 45/63/21
f 37/69/22 24/70/22 26/71/22
f 1/72/23 37/73/23 4/74/23
f 4/75/24 37/76/24 38/77/24
f 37/76/25 26/78/25 38/77/25
f 26/79/26 46/80/26 47/81/26 27/82/26
f 46/80/27 6/6/27 8/83/27 47/81/27
f 4/84/28 38/85/28 7/86/28
f 38/85/29 26/79/29 27/82/29
f 27/87/30 47/88/30 56/89/30 28/90/30
f 47/88/31 8/91/31 39/58/31 56/89/31
f 7/92/32 38/93/32 40/94/32
f 38/93/33 27/87/33 28/90/33 40/94/33
f 7/95/34 40/96/34 10/97/34
f 10/98/35 40/99/35 41/100/35
f 40/99/36 28/101/36 29/102/36 41/100/36
f 10/103/37 41/104/37 13/105/37
f 29/106/38 49/50/38 50/53/38
f 29/107/39 50/108/39 32/109/39
f 13/110/40 41/111/40 42/112/40
f 41/111/41 29/107/41 32/109/41 42/112/41
f 13/113/42 42/114/42 15/115/42
f 15/116/43 42/117/43 43/118/43
f 42/117/44 32/119/44 43/118/44
f 15/120/45 43/121/45 18/122/45
f 54/123/46 19/22/46 20/124/46
f 18/125/47 43/126/47 44/127/47 21/128/47
f 43/126/48 34/129/48 44/127/48
f 44/130/49 34/131/49 23/132/49
f 21/133/50 44/134/50 1/135/50
f 1/136/51 44/38/51 37/40/51
f 23/137/52 55/138/52 36/139/52
f 55/138/53 35/43/53 2/140/53 36/139/53
f 34/131/54 55/141/54 23/132/54
f 34/142/55 54/24/55 55/26/55
f 33/45/56 53/20/56 54/23/56 34/46/56
f 32/48/57 51/16/57 53/19/57 33/49/57
f 51/143/58 16/144/58 52/17/58
f 32/145/59 50/146/59 51/147/59
f 50/146/60 14/148/60 51/147/60
f 50/149/61 31/52/61 14/150/61
f 29/151/62 48/152/62 49/153/62
f 48/152/63 30/56/63 12/154/63 49/153/63
f 28/101/64 48/155/64 29/102/64
f 28/156/65 56/7/65 48/9/65
f 24/70/66 45/157/66 46/158/66 26/71/66
f 45/157/67 3/159/67 46/158/67
f 45/160/68 25/62/68 3/161/68
f 17/162/69 19/163/69 52/164/69
f 2/165/70 35/166/70 25/167/70
f 8/168/71 39/169/71 6/170/71
f 12/171/72 31/172/72 30/173/72
f 3/174/73 25/167/73 35/43/73 22/175/73 20/176/73 19/163/73 52/17/73 16/177/73 14/178/73 31/172/73 30/56/73 11/179/73 9/180/73 39/169/73 6/6/73 5/181/73
usemtl Leaves
f 75/182/74 59/183/74 58/184/74
f 59/183/75 62/185/75 61/186/75 58/184/75
f 58/184/76 61/186/76 57/187/76
f 60/188/77 62/189/77 59/190/77
f 60/191/78 64/192/78 62/193/78
f 62/185/79 64/194/79 63/195/79 61/186/79
f 61/186/80 63/195/80 57/187/80
f 63/195/81 65/196/81 57/187/81
f 63/195/82 66/197/82 65/196/82
f 60/198/83 67/199/83 64/200/83
f 64/201/84 67/202/84 66/197/84 63/195/84
f 60/198/85 68/203/85 67/199/85
f 67/202/86 70/204/86 69/205/86 66/197/86
f 66/197/87 69/205/87 65/206/87
f 68/207/88 70/208/88 67/209/88
f 69/205/89 71/210/89 65/206/89
f 70/211/90 73/212/90 72/213/90 69/214/90
f 69/205/91 72/215/91 71/210/91
f 68/216/92 73/217/92 70/218/92
f 72/215/93 74/219/93 71/210/93
f 68/220/94 75/221/94 73/222/94
f 73/223/95 75/224/95 74/225/95 72/226/95
f 68/220/96 60/227/96 75/221/96
f 74/228/97 58/184/97 57/229/97 71/230/97
f 60/227/98 59/231/98 75/221/98
f 74/228/99 75/182/99 58/184/99
f 71/232/100 57/233/100 65/234/100
f 88/235/101 76/236/101 58/237/101
f 88/235/102 58/237/102 89/238/102
f 75/239/103 88/235/103 89/238/103
f 75/239/104 89/238/104 59/240/104
f 76/236/105 57/241/105 58/237/105
f 77/242/106 59/243/106 60/244/106
f 58/237/107 57/245/107 90/246/107
f 89/238/108 58/237/108 78/247/108
f 59/240/109 89/238/109 78/247/109
f 59/240/110 78/247/110 62/248/110
f 59/249/111 62/250/111 91/251/111
f 60/252/112 59/249/112 91/251/112
f 78/247/113 58/237/113 90/246/113
f 60/252/114 91/251/114 62/250/114
f 78/247/115 90/246/115 61/253/115
f 78/247/116 61/253/116 80/254/116
f 62/248/117 78/247/117 80/254/117
f 61/253/118 90/246/118 79/255/118
f 90/246/119 57/245/119 79/255/119
f 61/253/120 79/255/120 80/254/120
f 62/248/121 80/254/121 64/256/121
f 79/255/122 57/245/122 65/257/122
f 80/254/123 79/255/123 63/258/123
f 80/254/124 63/258/124 64/256/124
f 79/255/125 65/257/125 81/259/125
f 63/258/126 79/255/126 81/259/126
f 64/260/127 63/258/127 82/261/127
f 60/262/128 64/263/128 83/264/128
f 64/260/129 82/261/129 67/265/129
f 83/264/130 64/263/130 67/266/130
f 82/261/131 63/258/131 81/259/131
f 60/262/132 83/264/132 68/267/132
f 82/261/133 81/259/133 66/268/133
f 81/259/134 65/257/134 66/268/134
f 82/261/135 66/268/135 84/269/135
f 67/265/136 82/261/136 84/269/136
f 83/264/137 67/266/137 68/267/137
f 68/270/138 67/271/138 92/272/138
f 67/265/139 84/269/139 70/273/139
f 66/268/140 65/274/140 85/275/140
f 92/272/141 67/271/141 70/276/141
f 66/268/142 85/275/142 84/269/142
f 84/269/143 85/275/143 69/277/143
f 68/270/144 92/272/144 70/276/144
f 84/269/145 69/277/145 70/273/145
f 70/278/146 69/279/146 86/280/146
f 85/275/147 65/274/147 71/281/147
f 85/275/148 71/281/148 93/282/148
f 69/277/149 85/275/149 93/282/149
f 86/280/150 69/279/150 72/283/150
f 70/278/151 86/280/151 73/284/151
f 69/277/152 93/282/152 72/285/152
f 86/280/153 72/283/153 73/284/153
f 73/286/154 72/287/154 87/288/154
f 72/287/155 74/289/155 87/288/155
f 93/282/156 71/281/156 74/290/156
f 72/285/157 93/282/157 74/290/157
f 68/291/158 73/292/158 77/242/158
f 77/242/159 73/292/159 75/293/159
f 87/288/160 74/289/160 75/294/160
f 73/286/161 87/288/161 75/294/161
f 74/295/162 71/296/162 76/236/162
f 68/291/163 77/242/163 60/244/163
f 77/242/164 75/293/164 59/243/164
f 74/295/165 76/236/165 88/235/165
f 75/239/166 74/295/166 88/235/166
f 71/296/167 57/241/167 76/236/167
