# Blender v3.0.0 OBJ File: ''
# www.blender.org
mtllib house.mtl
o house_Cube.001
v 0.500000 -0.500000 -0.051858
v 0.500000 -0.500000 0.948142
v -0.500000 -0.500000 -0.051858
v -0.500000 -0.500000 0.948142
v 0.500000 0.500000 -0.051858
v 0.500000 0.500000 0.948142
v -0.500000 0.500000 -0.051858
v -0.500000 0.500000 0.948142
v 0.608272 -0.608272 0.866873
v -0.608272 -0.608272 0.866873
v 0.608272 0.608272 0.866873
v -0.608272 0.608272 0.866873
v 0.411234 -0.411234 1.206562
v -0.411234 -0.411234 1.206562
v 0.411234 0.411234 1.206562
v -0.411234 0.411234 1.206562
vt 0.375000 0.000000
vt 0.625000 0.000000
vt 0.625000 0.250000
vt 0.375000 0.250000
vt 0.625000 0.500000
vt 0.375000 0.500000
vt 0.625000 0.750000
vt 0.375000 0.750000
vt 0.625000 1.000000
vt 0.375000 1.000000
vt 0.125000 0.500000
vt 0.125000 0.750000
vt 0.625000 0.500000
vt 0.625000 0.750000
vt 0.625000 1.000000
vt 0.625000 0.750000
vt 0.625000 1.000000
vt 0.625000 0.000000
vt 0.625000 0.250000
vt 0.625000 0.500000
vt 0.875000 0.500000
vt 0.875000 0.750000
vt 0.625000 0.250000
vt 0.625000 0.000000
vn 0.0000 -1.0000 0.0000
vn -1.0000 0.0000 0.0000
vn 0.0000 1.0000 0.0000
vn 1.0000 0.0000 0.0000
vn 0.0000 0.0000 -1.0000
vn 0.0000 -0.6003 -0.7998
vn 0.8650 0.0000 0.5018
vn 0.0000 0.6003 -0.7998
vn -0.6003 0.0000 -0.7998
vn 0.6003 0.0000 -0.7998
vn 0.0000 0.0000 1.0000
vn -0.8650 0.0000 0.5018
vn 0.0000 0.8650 0.5018
vn 0.0000 -0.8650 0.5018
usemtl None
s off
f 1/1/1 2/2/1 4/3/1 3/4/1
f 3/4/2 4/3/2 8/5/2 7/6/2
f 7/6/3 8/5/3 6/7/3 5/8/3
f 5/8/4 6/7/4 2/9/4 1/10/4
f 3/11/5 7/6/5 5/8/5 1/12/5
f 6/7/6 8/5/6 12/13/6 11/14/6
f 9/15/7 11/14/7 15/16/7 13/17/7
f 4/3/8 2/2/8 9/18/8 10/19/8
f 2/9/9 6/7/9 11/14/9 9/15/9
f 8/5/10 4/3/10 10/19/10 12/13/10
f 16/20/11 14/21/11 13/22/11 15/16/11
f 12/13/12 10/19/12 14/23/12 16/20/12
f 11/14/13 12/13/13 16/20/13 15/16/13
f 10/19/14 9/18/14 13/24/14 14/23/14
